<svg xmlns="http://www.w3.org/2000/svg" id="SvgjsSvg960086" width="4096" height="1611.5555555555554" version="1.1" xmlns:xlink="http://www.w3.org/1999/xlink" xmlns:svgjs="http://svgjs.com/svgjs"><defs id="SvgjsDefs960087"></defs><g id="SvgjsG960088" transform="translate(328, 328) scale(34.4)" opacity="1"><defs id="SvgjsDefs207474"></defs><g id="SvgjsG207475" transform="scale(0.1984126984126984)" opacity="1"><g id="SvgjsG207476" class="_jRUekj6h" transform="translate(0, 0) scale(1)" light-content="false" fill="#4a4a4a"><path d="M0 0 h 216.72 v 8 h -216.72 ZM403.20000000000005 0 h 100.79999999999998 v 8 h -100.79999999999998 Z M0 0 h 8 v 140 h -8 Z M504 140 h -231.83999999999997 v -8 h 231.83999999999997 ZM100.80000000000001 140 h -100.80000000000001 v -8 h 100.80000000000001 Z M504 140 h -8 v -140 h 8 Z" fill-rule="nonzero"></path></g><g id="SvgjsG207477" class="text" transform="translate(310.85688831577073, 95.88968406729282) scale(1)" light-content="false" fill="#000000"><path d="M-169.05 -41.32L-169.05 0L-153.49 0L-153.49 -4.93L-162.78 -4.93L-162.78 -19.09L-155.79 -19.09L-155.79 -24.02L-162.78 -24.02L-162.78 -36.38L-153.73 -36.38L-153.73 -41.32Z M-139.06 -41.32L-139.06 0L-132.79 0L-132.79 -41.32Z M-117.42 -8.37C-117.42 -7.27 -117.27 -6.2 -116.97 -5.15C-116.67 -4.1 -116.16 -3.17 -115.42 -2.35C-114.69 -1.52 -113.7 -0.86 -112.47 -0.36C-111.24 0.14 -109.68 0.39 -107.81 0.39C-106.3 0.39 -104.94 0.17 -103.73 -0.28C-102.52 -0.72 -101.48 -1.35 -100.63 -2.18C-99.77 -3 -99.12 -4 -98.66 -5.18C-98.2 -6.35 -97.97 -7.68 -97.97 -9.14C-97.97 -10.92 -98.32 -12.6 -99.03 -14.19C-99.74 -15.78 -100.76 -17.43 -102.08 -19.16L-109.36 -27.96C-109.67 -28.37 -109.94 -28.75 -110.18 -29.13C-110.43 -29.5 -110.63 -29.88 -110.8 -30.27C-110.97 -30.67 -111.1 -31.1 -111.19 -31.57C-111.28 -32.04 -111.32 -32.56 -111.32 -33.14C-111.32 -34.24 -111.03 -35.11 -110.45 -35.77C-109.87 -36.42 -108.99 -36.75 -107.81 -36.75C-106.39 -36.75 -105.37 -36.16 -104.74 -34.99C-104.11 -33.82 -103.8 -32.14 -103.8 -29.95L-103.8 -27.99L-98.96 -27.99C-98.78 -28.89 -98.63 -29.72 -98.49 -30.47C-98.35 -31.22 -98.28 -32.04 -98.28 -32.92C-98.28 -33.97 -98.43 -35.02 -98.73 -36.06C-99.03 -37.1 -99.54 -38.04 -100.27 -38.87C-100.99 -39.71 -101.96 -40.39 -103.18 -40.91C-104.4 -41.42 -105.92 -41.68 -107.74 -41.68C-109.24 -41.68 -110.58 -41.45 -111.77 -40.99C-112.95 -40.53 -113.95 -39.89 -114.76 -39.06C-115.56 -38.23 -116.18 -37.24 -116.61 -36.09C-117.03 -34.95 -117.25 -33.69 -117.25 -32.32C-117.25 -30.61 -116.93 -29 -116.31 -27.49C-115.68 -25.99 -114.78 -24.49 -113.62 -23.01L-107.09 -15.24C-106.51 -14.51 -106.03 -13.86 -105.66 -13.27C-105.29 -12.68 -105 -12.12 -104.78 -11.59C-104.56 -11.06 -104.41 -10.52 -104.32 -9.98C-104.23 -9.44 -104.19 -8.85 -104.19 -8.2C-104.19 -6.94 -104.5 -5.99 -105.13 -5.33C-105.76 -4.68 -106.67 -4.35 -107.86 -4.35C-108.62 -4.35 -109.26 -4.5 -109.79 -4.8C-110.31 -5.1 -110.73 -5.54 -111.04 -6.13C-111.36 -6.72 -111.58 -7.44 -111.72 -8.3C-111.86 -9.15 -111.93 -10.14 -111.93 -11.25L-111.93 -13.26L-116.79 -13.26C-117 -12.39 -117.16 -11.58 -117.26 -10.83C-117.37 -10.08 -117.42 -9.26 -117.42 -8.37Z M-82.79 -41.32L-82.79 0L-67.23 0L-67.23 -4.93L-76.52 -4.93L-76.52 -19.09L-69.53 -19.09L-69.53 -24.02L-76.52 -24.02L-76.52 -36.38L-67.47 -36.38L-67.47 -41.32Z M-52.8 -41.32L-52.8 0L-47.24 0L-47.24 -12.14C-47.24 -14.24 -47.26 -16.05 -47.31 -17.57C-47.36 -19.1 -47.41 -20.43 -47.48 -21.58C-47.54 -22.72 -47.61 -23.72 -47.69 -24.57C-47.78 -25.41 -47.84 -26.2 -47.89 -26.92L-47.69 -26.92L-37.73 0L-32.6 0L-32.6 -41.32L-38.21 -41.32L-38.21 -26.25C-38.21 -24.65 -38.19 -23.22 -38.14 -21.94C-38.09 -20.67 -38.03 -19.53 -37.97 -18.52C-37.91 -17.51 -37.83 -16.61 -37.75 -15.82C-37.67 -15.03 -37.61 -14.31 -37.56 -13.67L-37.7 -13.67L-47.72 -41.32Z M-16.11 -21.48L-16.11 -16.57L1.91 -16.57L1.91 -21.48Z M18.4 -41.32L18.4 0L24.25 0L24.25 -13.67C24.25 -15.76 24.23 -17.78 24.19 -19.72C24.15 -21.65 24.1 -23.43 24.04 -25.05C23.97 -26.67 23.9 -28.1 23.82 -29.34C23.74 -30.59 23.67 -31.57 23.6 -32.29L24.06 -32.29L30.35 -5.32L34.32 -5.32L40.56 -32.29L41.02 -32.29C40.95 -31.57 40.88 -30.59 40.8 -29.34C40.72 -28.1 40.65 -26.67 40.58 -25.05C40.52 -23.43 40.47 -21.65 40.43 -19.72C40.39 -17.78 40.36 -15.76 40.36 -13.67L40.36 0L46.22 0L46.22 -41.32L38.21 -41.32L34.12 -25.33C33.7 -23.55 33.37 -21.86 33.13 -20.26C32.89 -18.66 32.66 -17.14 32.43 -15.72L32.24 -15.72C32.01 -17.14 31.78 -18.66 31.54 -20.26C31.29 -21.86 30.96 -23.55 30.54 -25.33L26.58 -41.32Z M63.19 -41.32L63.19 0L78.75 0L78.75 -4.93L69.46 -4.93L69.46 -19.09L76.45 -19.09L76.45 -24.02L69.46 -24.02L69.46 -36.38L78.5 -36.38L78.5 -41.32Z M97 -36.38L97 0L103.27 0L103.27 -36.38L109.89 -36.38L109.89 -41.32L90.35 -41.32L90.35 -36.38Z M128.58 -41.32L120.96 0L127.33 0L128.41 -7.4L135.96 -7.4L137.1 0L143.44 0L135.79 -41.32ZM135.24 -12.12L129.14 -12.12L132.07 -32.71L132.33 -32.71Z M157.34 -41.32L157.34 0L172.14 0L172.14 -4.93L163.6 -4.93L163.6 -41.32Z"></path></g><g id="SvgjsG207478" class="ddv-XJKCeJ" transform="translate(11.159214140819156, 18.747471139273504) scale(1.021040366810862)" light-content="false" fill="#d0021b"><path d="M36.703 11.011L9.638 26.636v12.121l27.065-15.626 27.064 15.626V26.636zm26.595 78.081L36.233 73.467V61.348l27.065 15.625 27.064-15.625v12.119z"></path><path d="M9.638 42.012l27.065-15.626 10.495 6.06-27.064 15.626v31.252l-10.496-6.06zm67.445-23.14L50.018 3.247l-10.496 6.06 27.064 15.625v31.252l10.497-6.06z"></path><path d="M23.01 81.127l.001-31.251 10.496-6.06v31.252l27.064 15.625-10.496 6.061zm67.352-23.035V26.84l-10.496-6.06v31.251L52.802 67.658l10.496 6.061z"></path></g></g></g></svg>