<svg version="1.1" id="Layer_1" xmlns="http://www.w3.org/2000/svg" xmlns:xlink="http://www.w3.org/1999/xlink" x="0px" y="0px"
	 width="659px" height="659px" viewBox="-6 0 659 659" enable-background="new -6 0 659 659" xml:space="preserve">
<path fill="#D0021B" opacity="1.000000" stroke="none" 
	d="
M391.006287,236.048676 
	C381.070221,230.315979 371.536041,224.589203 361.924469,218.995422 
	C344.953430,209.118530 327.954132,199.289795 310.931335,189.502380 
	C294.766083,180.208038 278.533356,171.030991 262.373657,161.727066 
	C253.311508,156.509567 244.221039,151.323837 235.377777,145.751678 
	C231.574799,143.355423 228.664688,143.274139 224.739960,145.631165 
	C209.041672,155.058929 193.110977,164.099167 177.288528,173.320953 
	C161.181534,182.708618 145.125916,192.184601 129.000656,201.540680 
	C115.549217,209.345367 102.036674,217.044907 88.538216,224.768326 
	C74.775574,232.642914 61.003498,240.501099 47.217350,248.334442 
	C45.520706,249.298492 43.711926,250.065170 41.331997,251.227676 
	C41.202534,249.248215 41.015236,247.709045 41.014122,246.169739 
	C40.995895,221.010590 41.083317,195.850861 40.906082,170.692947 
	C40.881588,167.216339 42.061741,165.209808 44.896004,163.595367 
	C61.529778,154.120667 78.156685,144.633118 94.728363,135.050385 
	C112.848526,124.572243 130.869736,113.922806 149.002731,103.467079 
	C163.328522,95.206619 177.784576,87.172348 192.133514,78.951614 
	C203.627960,72.366264 215.107651,65.750107 226.454300,58.915890 
	C228.878708,57.455639 230.356003,57.394665 232.894241,58.857941 
	C258.662384,73.713135 284.593750,88.284859 310.402557,103.070053 
	C332.268280,115.596329 354.049225,128.270889 375.836243,140.933975 
	C389.403076,148.819305 402.943085,156.752533 416.393250,164.833893 
	C417.639038,165.582413 418.880585,167.555878 418.888092,168.967148 
	C419.029907,195.625000 418.987732,222.283875 418.963806,248.942505 
	C418.963257,249.545532 418.728760,250.148376 418.443298,251.520737 
	C409.154510,246.234253 400.263885,241.174362 391.006287,236.048676 
z"/>
<path fill="#D0021B" opacity="1.000000" stroke="none" 
	d="
M445.233551,585.255310 
	C436.991150,590.004578 428.590607,593.900757 421.194214,599.198914 
	C416.077850,602.863892 412.410889,601.100159 408.291382,598.721802 
	C391.295197,588.908691 374.354645,578.999329 357.390320,569.131042 
	C339.164215,558.528870 320.964783,547.880371 302.697693,537.349243 
	C283.984711,526.560974 265.201416,515.894775 246.454163,505.165863 
	C240.367569,501.682526 234.254349,498.241394 228.261642,494.602509 
	C227.230728,493.976562 226.105621,492.455627 226.100830,491.343475 
	C225.981598,463.716766 226.007324,436.089417 226.007324,407.525330 
	C231.704926,410.726959 236.780991,413.521637 241.802155,416.411682 
	C256.968597,425.141174 272.120789,433.895569 287.265198,442.663239 
	C302.262115,451.345490 317.227173,460.082947 332.235138,468.746002 
	C346.958496,477.244781 361.739868,485.643097 376.455261,494.155579 
	C387.919037,500.787079 399.350250,507.476318 410.729645,514.251282 
	C413.684235,516.010376 415.786591,516.679932 419.393311,514.504761 
	C437.170563,503.783356 455.330017,493.697876 473.295258,483.285583 
	C495.638336,470.335999 517.891663,457.231384 540.243469,444.296906 
	C558.067627,433.982452 575.980591,423.821320 593.856018,413.595490 
	C596.944092,411.828949 600.041748,410.079285 603.744568,407.975525 
	C603.854858,410.391876 603.988708,411.968872 603.989563,413.545959 
	C604.002686,438.701569 603.939514,463.857452 604.066711,489.012421 
	C604.084534,492.539673 603.173706,494.373779 599.807007,496.226959 
	C585.780396,503.947754 572.084290,512.267151 558.226624,520.297363 
	C546.491150,527.097778 534.682556,533.771973 522.937683,540.556335 
	C503.959656,551.518982 485.022766,562.552979 466.035858,573.500183 
	C459.240570,577.418091 452.350555,581.171753 445.233551,585.255310 
z"/>
<path fill="#D0021B" opacity="1.000000" stroke="none" 
	d="
M351.354065,446.280640 
	C367.846741,436.804108 384.041901,427.556274 400.202667,418.248840 
	C412.389313,411.230286 424.536804,404.143677 436.693085,397.072540 
	C454.787598,386.547241 472.852081,375.970184 490.972565,365.489899 
	C502.581390,358.775757 514.159424,351.992554 525.988403,345.684875 
	C529.376709,343.878082 530.077087,341.889313 530.072266,338.411682 
	C529.976929,269.580994 530.001221,200.750137 530.001221,131.919327 
	C530.001221,129.926788 530.001221,127.934258 530.001221,125.022606 
	C537.272705,128.961624 544.061279,132.461273 550.677246,136.261551 
	C562.871826,143.266266 574.957764,150.460037 587.104248,157.548828 
	C591.616760,160.182358 596.172546,162.741669 600.707947,165.336136 
	C603.180176,166.750351 604.095032,168.649048 604.089844,171.711456 
	C603.971741,241.875366 603.984253,312.039520 604.050476,382.203552 
	C604.053223,385.096100 603.460754,386.711578 600.621399,388.317749 
	C581.834717,398.945099 563.238831,409.909821 544.587463,420.776093 
	C522.265930,433.780640 499.983856,446.853241 477.623444,459.790527 
	C457.800934,471.259369 437.927673,482.642273 417.956024,493.847839 
	C416.513336,494.657288 413.736633,494.339905 412.169250,493.476746 
	C400.420959,487.006775 388.805206,480.294922 377.179047,473.604767 
	C366.823303,467.645660 356.500519,461.629089 346.181976,455.605743 
	C344.787964,454.791962 343.503448,453.790588 341.514313,452.428223 
	C345.041229,450.227692 348.041504,448.355713 351.354065,446.280640 
z"/>
<path fill="#D0021B" opacity="1.000000" stroke="none" 
	d="
M91.223373,244.257690 
	C116.870071,229.368149 142.265732,214.771530 167.606049,200.079468 
	C187.549911,188.516266 207.412537,176.812897 227.367935,165.269806 
	C228.418015,164.662384 230.326385,164.393677 231.282120,164.938126 
	C248.769623,174.899979 266.167145,185.019669 283.596039,195.084641 
	C290.079865,198.828964 296.595062,202.519073 304.258362,206.898148 
	C298.097504,210.545944 292.885834,213.677307 287.630920,216.734299 
	C273.494324,224.958099 259.355133,233.177628 245.187057,241.346970 
	C231.434570,249.276703 217.623734,257.105316 203.877487,265.045776 
	C189.993393,273.065857 176.170944,281.192596 162.296036,289.228638 
	C148.579468,297.172974 134.918320,305.220428 121.043015,312.878693 
	C116.933563,315.146820 114.848740,317.383270 114.863907,322.531219 
	C115.065208,390.846588 114.998230,459.162750 114.998222,527.478699 
	C114.998215,529.469543 114.998222,531.460388 114.998222,534.391602 
	C110.302887,531.929382 106.103523,529.914795 102.085022,527.587830 
	C83.694908,516.938721 65.417801,506.092499 46.949615,495.581512 
	C42.835854,493.240234 40.845940,490.861145 40.861580,485.711212 
	C41.070084,417.062653 41.043701,348.413147 40.904659,279.764221 
	C40.895390,275.188385 41.802818,272.429962 46.202206,270.042938 
	C61.292992,261.854980 76.058784,253.068039 91.223373,244.257690 
z"/>
<path fill="#D0021B" opacity="1.000000" stroke="none" 
	d="
M326.776306,572.252808 
	C342.048615,581.169006 357.034698,589.855042 372.052002,598.486694 
	C380.284790,603.218750 388.570251,607.859253 397.470459,612.902832 
	C392.044342,616.065247 386.912994,619.061951 381.775848,622.048706 
	C363.123566,632.893311 344.498352,643.785461 325.752014,654.464966 
	C324.469299,655.195740 321.957855,654.890442 320.551544,654.107910 
	C308.130554,647.195740 295.827118,640.072083 283.495575,632.999451 
	C271.291382,625.999817 259.089355,618.996338 246.896423,611.977173 
	C233.148605,604.062988 219.396667,596.155762 205.674652,588.197021 
	C191.945145,580.233887 178.276062,572.166504 164.531631,564.229370 
	C155.048355,558.753052 145.416733,553.529236 136.031952,547.892090 
	C134.803894,547.154419 134.105804,544.631165 134.087509,542.925049 
	C133.935516,528.763000 134.001007,514.598633 134.000946,500.434967 
	C134.000717,444.780090 134.050888,389.125092 133.894913,333.470673 
	C133.883682,329.467255 135.104523,327.005096 138.428253,325.115112 
	C160.887024,312.344238 183.315460,299.520050 205.758179,286.720886 
	C206.168869,286.486694 206.634476,286.348755 207.998978,285.781647 
	C207.998978,288.067993 207.998993,289.938110 207.998993,291.808228 
	C207.999039,360.626984 208.014969,429.445709 207.950745,498.264435 
	C207.947632,501.595032 208.408005,503.642792 211.883713,505.574463 
	C228.178619,514.630432 244.166153,524.239136 260.269684,533.639832 
	C276.223328,542.953003 292.173920,552.271484 308.147430,561.550415 
	C314.235107,565.086731 320.382782,568.519836 326.776306,572.252808 
z"/>
<path fill="#D0021B" opacity="1.000000" stroke="none" 
	d="
M511.999146,120.118881 
	C511.999115,188.758240 511.962189,256.916077 512.089600,325.073608 
	C512.097351,329.216339 510.836029,331.444885 507.183838,333.518250 
	C486.219574,345.419678 465.440674,357.647369 444.575073,369.723206 
	C442.749207,370.779968 440.751465,371.539703 438.000793,372.827148 
	C438.000793,370.366211 438.000824,368.483032 438.000824,366.599854 
	C438.000793,298.108795 437.965973,229.617661 438.084351,161.126801 
	C438.091675,156.876892 437.074860,154.565536 433.036774,152.309174 
	C412.137665,140.631454 391.550018,128.397415 370.816864,116.421219 
	C352.924896,106.086182 334.952179,95.890793 317.072662,85.534355 
	C299.339722,75.262817 281.690125,64.847458 263.978577,54.538803 
	C259.051636,51.671165 254.034561,48.958370 248.360382,45.783764 
	C258.708618,39.806499 268.180634,34.318970 277.668457,28.858919 
	C291.600098,20.841564 305.589203,12.922336 319.443207,4.773262 
	C322.304779,3.090036 324.143158,3.558261 326.904327,5.203389 
	C342.254791,14.349345 357.823669,23.127981 373.290344,32.079754 
	C389.469238,41.443733 405.601959,50.887508 421.782745,60.248184 
	C437.821014,69.526428 453.890594,78.750595 469.953003,87.987167 
	C483.319122,95.673279 496.822632,103.137001 509.913757,111.265396 
	C511.666046,112.353432 511.354797,116.764885 511.999146,120.118881 
z"/>
</svg>